<svg version="1" xmlns="http://www.w3.org/2000/svg" width="2044" height="2044" viewBox="0 0 1533.000000 1533.000000"><path d="M565 162.4c-.3.2-3.2.7-6.5 1.1-3.3.3-7.9 1.1-10.3 1.6-2.3.5-5.7 1.1-7.5 1.4-11.3 1.5-37.6 8.2-54.9 13.9-74 24.4-136.4 68.3-185.1 130.4-8.3 10.5-19.9 26.8-24.2 34-.5 1-2.6 4.4-4.7 7.7-7.6 12.5-20.1 36.7-27 52.5-7.7 17.4-18.6 50.2-21.4 64.3-.2 1-.6 2.7-.9 3.8-.4 1.1-.8 3.2-1 4.7-.2 1.5-.8 4.7-1.4 7.2-.5 2.5-1.2 6.5-1.6 9-.3 2.5-.8 5.6-1 7-.9 5.8-1.8 15-2 21.7-.1 4-.4 7.6-.8 7.9-.3.3-21.6.7-47.4.9-25.7.1-48.6.6-50.8 1-26.9 4.5-42.5 17.3-43.7 35.6l-.2 3.7-10.4-.3c-23.4-.5-38.8 6.9-46.8 22.8-1.4 2.7-2.8 5.9-3.1 7.1-3.3 13.6-3.5 25.9-.8 37.8 5 22.1 19.7 33 43.5 32.3l8.5-.3-.1 12.7c-.1 6.9-.4 79-.7 160.1-.6 155.7-.7 153.4 3.7 166.5 6.6 19.4 20.7 33.7 39.6 40 3 1.1 6 2 6.5 2.1 9.4 2.2 15.7 2.7 39 2.9 54.3.7 78.2 1.5 80.5 3 .4.2.4 2.4.1 4.7-1.1 7.9-.3 44.7 1.4 60.3.7 7 3.8 26.5 6.1 39 3.9 21.3 14.4 51.5 25.6 73.5 5.5 10.7 18.3 31 22.5 35.5 1 1.1 3.4 4 5.4 6.5 10.4 12.9 33.1 32.6 45.4 39.4 1.7.9 4.6 2.6 6.5 3.8 18 10.8 48 21.7 70 25.3 1.9.3 4.2.8 5 1 .8.2 3.8.7 6.5 1.1 2.8.3 5.9.8 7 1 8.5 1.6 48.5 1.9 270.5 1.7 252.9-.2 361.4-.7 366-1.6 1.4-.3 5.9-1.1 10-1.7 9.9-1.6 28.4-6.2 39-9.8 28.8-9.8 52-22.5 77.8-42.6.8-.6 7.8-7.4 15.6-15.1 20.8-20.5 33.5-38.4 47.1-66 9-18.6 18.5-45.3 22-62.3.2-.9.8-3.7 1.4-6.2.5-2.5 1.2-5.9 1.5-7.5.3-1.7.8-4 1-5.2.3-1.1.8-4.3 1.2-7 .3-2.6.8-5.5 1-6.5 2.2-12.3 4.2-38.6 4.3-56.9l.1-9.6h51.8c28.6 0 53.9-.3 56.3-.7 2.4-.4 4.9-.7 5.4-.8 1.5-.2 16.6-5.4 20-6.9 5.8-2.6 16.2-9.7 21.9-15 10.3-9.5 18.1-22.5 22.4-37.4 1.9-6.6 2.7-10.4 3.8-20 .6-5.8 0-213.5-.9-281.3-.1-9.4 0-17.2.3-17.2 16-1.2 30.8-7.6 39.3-17.1 7.4-8.2 10.8-17.1 11.3-30.4 1.3-32.8-17.1-49.9-54.4-51-4.4-.1-6.6-.6-7.5-1.8-5.1-6.7-10-12-15.5-16.7-3.5-3-6.9-6-7.5-6.5-2.1-1.9-11.6-7.4-15.4-9.1-14.6-6.1-16.1-6.3-68.7-6.7l-32.9-.2-1.3-3.7c-1.6-4.8-8.2-17.7-12.6-24.8-17.5-28.4-49.6-62.6-83.2-88.9-3.3-2.7-3.6-3.2-2-3.7 4.7-1.6 26.4-11 30.4-13.2 24.3-13.2 36-21.9 51.8-38.1 17.7-18.2 29.1-40.1 32.6-63.1 1.3-8.1 1.4-37.7.2-46-.3-1.9-.8-5.7-1.1-8.5-.5-4.1-1.9-11.5-4.1-22.3-2.3-11.5-10-29.8-16.5-39.4-4.1-6-15.3-17.8-17-17.8-.4 0-2.4 3.1-4.4 6.8-8.3 15.8-26.2 35.9-42.2 47.4-19.2 13.8-47 24.9-68.3 27.4-3 .3-7.4 1-9.7 1.4-4.4.8-38.3.5-41.8-.3-1.1-.3-4.7-.8-8-1.2-3.3-.3-8.2-1.1-11-1.6-2.7-.6-6.1-1.3-7.5-1.5-20.6-4.1-43.5-10.4-93.8-26-36.4-11.3-76.2-22.2-101.2-27.9-.8-.2-5.3-1.2-10-2.3-11.4-2.7-47-9.9-57.5-11.6-3.2-.5-13.4-2.1-20-3.1-2.2-.3-4.7-.7-5.5-1-.8-.2-4-.6-7.1-1-3.1-.3-6.5-.7-7.5-.9-1.1-.2-4.8-.7-8.4-1.1-3.6-.4-7.2-.9-8-1-.8-.1-4.6-.6-8.5-.9-3.8-.4-8.1-.9-9.5-1.1-1.4-.2-6.1-.6-10.5-1s-8.9-1-10-1.3c-2.3-.7-182.9-1.5-183.5-.8zM615.8 597c14.7 3.4 27.4 16 30.7 30.5.9 3.7 1.1 47.5 1 169.5-.1 90.5-.5 165.8-.9 167.4-2.3 9.6-11.5 21.3-20.5 25.9-4.1 2.1-6.2 2.9-12.1 4.4-.8.2-108.6.4-239.5.4-262.6.1-241.8.6-253.2-6.3-6.7-4.1-13.4-12-16.5-19.6l-2.3-5.7-.3-165.5c-.2-117.6.1-166.8.8-170 3.7-15 16.1-27.7 30.5-30.9 5.7-1.3 476.8-1.3 482.3-.1zm786.3.6c13 3.9 22.8 13.1 27.5 26 1.7 4.6 1.8 13.5 1.9 170.5.2 135.2-.1 166.6-1.2 170.8-3.5 13.7-15.2 25.3-29.3 29.1-3.5 1-58.6 1.2-242 1.2-130.6-.1-238.5-.3-239.7-.6-1.3-.3-3.2-.8-4.4-1.1-7.3-1.6-20-11.9-23.9-19.5-5.2-10.2-5-1.1-5-178.5 0-143.6.2-164.8 1.5-169.3 4.1-13.6 14.2-24 27.5-28.3 5.2-1.7 18.6-1.8 243.6-1.8 215.5-.1 238.6.1 243.5 1.5z"/></svg>